<svg xmlns="http://www.w3.org/2000/svg" width="600" height="400" viewBox="0 0 600 400"><rect width="100%" height="100%" fill="#DDDDDD"/><path fill="#999999" d="M251.59 119.785h10.39v55.67h-10.39v-24.33h-26.14v24.33h-10.4v-55.67h10.4v23.95h26.14v-23.95Zm28.8 31.38h17.94q0-1.85-.52-3.49-.52-1.63-1.56-2.87-1.04-1.23-2.64-1.94t-3.71-.71q-4.12 0-6.49 2.35-2.37 2.34-3.02 6.66Zm24.25 5.73h-24.45q.24 3.04 1.08 5.26.85 2.21 2.24 3.66 1.38 1.44 3.29 2.15 1.9.71 4.21.71t3.99-.53q1.67-.54 2.92-1.2 1.25-.65 2.2-1.19.94-.54 1.83-.54 1.19 0 1.77.88l2.73 3.47q-1.58 1.85-3.54 3.1t-4.1 2q-2.14.75-4.35 1.06-2.22.31-4.29.31-4.12 0-7.67-1.37-3.54-1.37-6.16-4.04-2.61-2.68-4.12-6.62-1.5-3.95-1.5-9.15 0-4.04 1.31-7.6 1.31-3.56 3.76-6.2 2.44-2.64 5.96-4.18 3.53-1.54 7.95-1.54 3.74 0 6.9 1.2 3.15 1.19 5.42 3.48 2.28 2.29 3.57 5.62t1.29 7.61q0 2.15-.47 2.9-.46.75-1.77.75Zm9.47-38.65h9.51v57.21h-9.51v-57.21Zm19.14 0h9.51v57.21h-9.51v-57.21Zm36.5 17.09q4.38 0 7.98 1.43 3.6 1.42 6.16 4.04t3.95 6.39q1.39 3.77 1.39 8.43 0 4.7-1.39 8.47-1.39 3.78-3.95 6.43-2.56 2.66-6.16 4.08-3.6 1.43-7.98 1.43-4.43 0-8.05-1.43-3.62-1.42-6.18-4.08-2.56-2.65-3.97-6.43-1.4-3.77-1.4-8.47 0-4.66 1.4-8.43 1.41-3.77 3.97-6.39 2.56-2.62 6.18-4.04 3.62-1.43 8.05-1.43Zm0 33.38q4.92 0 7.29-3.31t2.37-9.7q0-6.39-2.37-9.74-2.37-3.35-7.29-3.35-5.01 0-7.42 3.37-2.4 3.37-2.4 9.72 0 6.35 2.4 9.68 2.41 3.33 7.42 3.33Zm-178.68 43.47h8.12l-17.29 55.67h-9.35l-12.17-38.04q-.5-1.38-.92-3.39-.23.97-.46 1.81-.23.85-.5 1.58l-12.29 38.04h-9.39l-17.25-55.67h8.67q1.34 0 2.25.63.9.64 1.21 1.72l9.47 33.3q.31 1.23.6 2.68.29 1.44.59 3.02.31-1.62.68-3.04.36-1.43.79-2.66l10.93-33.3q.31-.89 1.21-1.62.91-.73 2.22-.73h3.04q1.35 0 2.19.65.85.66 1.27 1.7l10.9 33.3q.81 2.39 1.46 5.51.5-3.05 1.12-5.51l9.47-33.3q.23-.96 1.17-1.66.95-.69 2.26-.69Zm30.95 15.55q4.39 0 7.99 1.43 3.6 1.42 6.16 4.04t3.95 6.39q1.38 3.77 1.38 8.43 0 4.7-1.38 8.47-1.39 3.78-3.95 6.43-2.56 2.66-6.16 4.08-3.6 1.43-7.99 1.43-4.43 0-8.05-1.43-3.61-1.42-6.17-4.08-2.57-2.65-3.97-6.43-1.41-3.77-1.41-8.47 0-4.66 1.41-8.43 1.4-3.77 3.97-6.39 2.56-2.62 6.17-4.04 3.62-1.43 8.05-1.43Zm0 33.38q4.93 0 7.3-3.31 2.36-3.31 2.36-9.7 0-6.39-2.36-9.74-2.37-3.35-7.3-3.35-5 0-7.41 3.37t-2.41 9.72q0 6.35 2.41 9.68t7.41 3.33Zm35.15-30.37.58 4.46q1.85-3.54 4.39-5.56 2.54-2.02 6-2.02 2.74 0 4.39 1.19l-.61 7.12q-.2.7-.56.99-.37.28-.98.28-.58 0-1.72-.19-1.13-.19-2.21-.19-1.58 0-2.81.46t-2.21 1.33q-.99.87-1.74 2.1t-1.4 2.81v24.33h-9.51v-39.5h5.58q1.46 0 2.04.52.58.52.77 1.87Zm20.44-20.1h9.51v57.21h-9.51v-57.21Zm43.82 45.51v-17.71q-1.62-1.97-3.52-2.78-1.91-.8-4.11-.8-2.15 0-3.88.8-1.74.81-2.97 2.45-1.23 1.64-1.88 4.16-.66 2.52-.66 5.95 0 3.46.56 5.87.56 2.4 1.6 3.92t2.54 2.2q1.5.67 3.35.67 2.96 0 5.04-1.23t3.93-3.5Zm0-45.51h9.51v57.21h-5.82q-1.88 0-2.38-1.73l-.81-3.81q-2.39 2.73-5.49 4.42-3.1 1.7-7.22 1.7-3.23 0-5.93-1.35-2.69-1.35-4.63-3.91-1.95-2.56-3.01-6.33-1.06-3.77-1.06-8.62 0-4.39 1.2-8.17 1.19-3.77 3.42-6.54 2.24-2.77 5.35-4.33 3.12-1.56 7.01-1.56 3.31 0 5.66 1.04t4.2 2.81v-20.83Zm17.52 51.97q0-1.19.44-2.27t1.21-1.85q.77-.77 1.85-1.23 1.08-.46 2.31-.46t2.29.46q1.06.46 1.85 1.23t1.25 1.85q.46 1.08.46 2.27 0 1.24-.46 2.29-.46 1.06-1.25 1.83t-1.85 1.22q-1.06.44-2.29.44t-2.31-.44q-1.08-.45-1.85-1.22t-1.21-1.83q-.44-1.05-.44-2.29Zm29.18-22.71v17.71q1.62 1.96 3.52 2.77 1.91.81 4.14.81 2.16 0 3.89-.81t2.94-2.46q1.22-1.66 1.87-4.18.66-2.52.66-5.95 0-3.46-.56-5.87t-1.6-3.91q-1.04-1.5-2.52-2.19t-3.37-.69q-2.97 0-5.04 1.25-2.08 1.25-3.93 3.52Zm-1.27-9.82.77 3.66q2.42-2.73 5.5-4.43 3.08-1.69 7.24-1.69 3.24 0 5.91 1.35 2.68 1.34 4.62 3.9 1.95 2.56 3 6.32 1.06 3.75 1.06 8.6 0 4.43-1.19 8.2-1.19 3.78-3.41 6.55-2.21 2.77-5.35 4.33-3.14 1.56-7.03 1.56-3.31 0-5.66-1.02-2.34-1.02-4.19-2.83v16.17h-9.51v-52.4h5.81q1.85 0 2.43 1.73Zm43.73 0 .66 3.12q1.19-1.19 2.52-2.21t2.81-1.74q1.48-.71 3.18-1.11 1.69-.41 3.69-.41 3.24 0 5.74 1.1t4.18 3.08q1.67 1.98 2.54 4.74.86 2.75.86 6.06v25.14h-9.51v-25.14q0-3.62-1.65-5.6-1.66-1.98-5.04-1.98-2.47 0-4.62 1.11-2.16 1.12-4.09 3.04v28.57h-9.51v-39.5h5.82q1.85 0 2.42 1.73Zm49.63 17.06q1.77 0 3.08-.48 1.31-.49 2.18-1.33.86-.85 1.3-2.04.45-1.2.45-2.62 0-2.93-1.75-4.64-1.76-1.71-5.26-1.71t-5.25 1.71q-1.76 1.71-1.76 4.64 0 1.39.45 2.58.44 1.19 1.31 2.06.86.86 2.19 1.35 1.33.48 3.06.48Zm10.74 22.48q0-1.15-.69-1.89-.69-.73-1.89-1.13-1.19-.41-2.79-.6t-3.39-.29q-1.79-.09-3.69-.17-1.91-.08-3.72-.31-1.58.89-2.56 2.08t-.98 2.77q0 1.04.52 1.95.52.9 1.66 1.56 1.13.65 2.94 1.02 1.81.36 4.43.36 2.65 0 4.58-.4 1.92-.41 3.18-1.12 1.25-.71 1.82-1.69.58-.98.58-2.14Zm-1.88-39.92h11.35v3.54q0 1.69-2.04 2.08l-3.54.65q.81 2.04.81 4.47 0 2.92-1.18 5.29-1.17 2.37-3.25 4.03-2.08 1.65-4.91 2.56-2.83.9-6.1.9-1.15 0-2.23-.12-1.08-.11-2.12-.3-1.85 1.11-1.85 2.5 0 1.19 1.1 1.75t2.91.79q1.81.23 4.12.29 2.31.06 4.73.25 2.43.19 4.74.67 2.31.48 4.12 1.52t2.9 2.83q1.1 1.79 1.1 4.6 0 2.62-1.29 5.09-1.29 2.46-3.73 4.39-2.45 1.92-6.01 3.09-3.56 1.18-8.1 1.18-4.47 0-7.78-.87-3.31-.86-5.51-2.31-2.19-1.44-3.27-3.33-1.08-1.88-1.08-3.92 0-2.78 1.68-4.64 1.67-1.87 4.6-2.99-1.58-.81-2.5-2.15-.93-1.35-.93-3.55 0-.88.33-1.82.33-.95.96-1.87.64-.93 1.6-1.75.96-.83 2.27-1.49-3-1.61-4.72-4.31-1.71-2.69-1.71-6.31 0-2.93 1.18-5.3 1.17-2.36 3.27-4.04 2.1-1.67 4.96-2.56 2.87-.88 6.26-.88 2.54 0 4.77.52 2.24.52 4.09 1.52Z"/></svg>